<svg width="100%" height="100%" viewBox="0 0 100 100" version="1.1" xmlns="http://www.w3.org/2000/svg" style="fill-rule:evenodd;clip-rule:evenodd;stroke-linejoin:round;">
    <defs>
    <linearGradient id="gradientAni" x1="0%" y1="0%" x2="100%" y2="0%">
      <stop offset="0%" stop-color="#398A3C" />
      <stop offset="66%" stop-color="#5B007A" />
        <animate attributeName="x1" values="0%;99%;50%;-40%;0%;" dur="9s" repeatCount="indefinite" />
        <animate attributeName="x2" values="100%;150%;150%;20%;100%;" dur="9s" repeatCount="indefinite" />
    </linearGradient>
    <linearGradient id="gradientFixed" x1="0%" y1="0%" x2="100%" y2="0%">
      <stop offset="0%" stop-color="#59AA5C" />
      <stop offset="50%" stop-color="#5B007A" />
    </linearGradient>
    </defs>
    <path d="M-3.238,26.525C-3.238,26.525 90.766,38.391 104.315,-2.239C104.992,-4.269 101.58,-5.617 99.003,-5.71L98.793,-5.715C96.963,-5.732 94.891,-5.122 92.881,-3.687C81.965,4.105 66.518,15.394 51.137,27.523C41.957,34.762 32.8,42.3 24.645,49.571C2.465,69.348 -12.317,87.157 -0.069,91.651C0.119,91.719 0.331,91.752 0.568,91.75L0.671,91.747C5.863,91.499 22.005,75.79 42.263,64.133C54.331,57.19 67.857,51.684 81.401,51.738L81.858,51.742C83.227,51.76 84.601,51.836 85.973,51.974C107.577,54.143 51.237,60.319 64.419,82.446C67.394,87.44 73.908,93.245 85.657,100" style="fill:none;stroke:black;stroke-width:1px; stroke:url(#gradientAni);stroke-width:1.5px;"/>
</svg>
